<svg xmlns="http://www.w3.org/2000/svg" width="28.028" height="28.04" viewBox="0 0 28.028 28.04">
  <g id="animals3" transform="translate(2183.398 -918.457)">
    <path id="Path_33589" data-name="Path 33589" d="M13.622,37.151A9.609,9.609,0,0,1,2.817,21.626L6.673,17.77a1.494,1.494,0,0,0,.184.188,6.5,6.5,0,0,0-.719,2.98,20.314,20.314,0,0,0,.942,6.134c1.981,6.253,1.687,4.763,1.687,7.011a3.067,3.067,0,0,0,3.067,3.067Z" transform="translate(-2183.404 908.47)" fill="#e8e8e8" opacity="0.5"/>
    <path id="Path_33590" data-name="Path 33590" d="M49.984,18.379,44.06,24.325c1.315-4.171,3.86-10.516,1.889-14.35C47.6,8.375,47.657,6.78,48.38,3.52a9.609,9.609,0,0,1,1.6,14.859Z" transform="translate(-2208.155 916.476)" fill="#e8e8e8" opacity="0.5"/>
    <path id="Path_33591" data-name="Path 33591" d="M39.072.916A6.573,6.573,0,0,0,33.814,4.68a5.885,5.885,0,0,0-1.056-.237l.223-1.113a1.315,1.315,0,0,0-1.293-1.573H29.45A9.64,9.64,0,0,1,39.072.916Z" transform="translate(-2199.946 918.449)" fill="#e8e8e8" opacity="0.5"/>
    <path id="Path_33592" data-name="Path 33592" d="M25.2,8.1c-1.442.2-.828.513-1.407-.412L24.964,6.51A5.043,5.043,0,0,0,25.2,8.1Z" transform="translate(-2196.767 914.796)" fill="#e8e8e8" opacity="0.5"/>
    <path id="Path_33593" data-name="Path 33593" d="M16.559,6.184A6.573,6.573,0,0,0,10.424,2a.438.438,0,0,0-.438.535c.78,3.505.824,5.1,2.721,6.809a.438.438,0,0,0,.666-.114,5.657,5.657,0,0,1,2.936-2.489.438.438,0,0,0,.25-.556ZM12.931,8.327C11.748,7.144,11.656,5.891,10.99,2.9A5.7,5.7,0,0,1,15.573,6.11a6.638,6.638,0,0,0-2.655,2.217Z" transform="translate(-2189.005 917.33)" fill="#464451"/>
    <path id="Path_33594" data-name="Path 33594" d="M15.643,13.724a.438.438,0,0,1-.381.219c-.21,0-.351-.149-.543-.351A6.5,6.5,0,0,0,14,16.572a20.314,20.314,0,0,0,.942,6.134c1.88,5.929,1.687,5.355,1.687,5.258a.438.438,0,0,1,.438-.438h.32C16.147,23.583,13.592,17.221,15.643,13.724ZM23.57,10a.438.438,0,0,0-.438.337l-.289,1.415h-1.91c-.337-1.7-.158-1.836-1.231-1.7A6.573,6.573,0,0,0,14,16.572c0,4.009.995,6.227,2.651,11.524a.438.438,0,0,0,.416.307h9.64c.438,0,.329-.044,2.121-5.7a20.314,20.314,0,0,0,.946-6.134A6.573,6.573,0,0,0,23.57,10Zm2.817,17.527h-9c-1.858-5.893-4.934-13.369.719-16.086a5.539,5.539,0,0,1,1.753-.521l.276,1.358a.438.438,0,0,0,.438.351H23.2a.438.438,0,0,0,.438-.351l.272-1.358A5.7,5.7,0,0,1,28.9,16.572C28.9,20.328,27.978,22.492,26.387,27.527Zm-10.744-13.8a.438.438,0,0,1-.381.219c-.21,0-.351-.149-.543-.351A6.5,6.5,0,0,0,14,16.572a20.314,20.314,0,0,0,.942,6.134c1.88,5.929,1.687,5.355,1.687,5.258a.438.438,0,0,1,.438-.438h.32C16.147,23.583,13.592,17.221,15.643,13.724Z" transform="translate(-2191.266 912.835)" fill="#464451"/>
    <path id="Path_33595" data-name="Path 33595" d="M25.315,28.657A.657.657,0,1,1,24.657,28,.657.657,0,0,1,25.315,28.657Z" transform="translate(-2196.885 902.722)" fill="#464451"/>
    <path id="Path_33596" data-name="Path 33596" d="M38.315,28.657A.657.657,0,1,1,37.657,28,.657.657,0,0,1,38.315,28.657Z" transform="translate(-2204.188 902.722)" fill="#464451"/>
    <path id="Path_33597" data-name="Path 33597" d="M45.471,2.155c-.438-.513-4.618,0-6.3,3.637-.705,1.468.723.438,2.59,2.817.438.565.408.771.714.828a.438.438,0,0,0,.359-.1,5.907,5.907,0,0,0,1.919-3.2C45.607,2.308,45.66,2.391,45.471,2.155ZM43.9,5.936A4.719,4.719,0,0,1,42.628,8.3,6.542,6.542,0,0,0,40,6.107,5.7,5.7,0,0,1,44.578,2.9Z" transform="translate(-2205.307 917.337)" fill="#464451"/>
    <path id="Union_59" data-name="Union 59" d="M3.067,25.43A3.067,3.067,0,0,1,0,22.363V20.611a.438.438,0,0,1,.438-.438h9.64a.438.438,0,0,1,.438.438v1.752A3.067,3.067,0,0,1,7.449,25.43ZM.877,22.363a2.191,2.191,0,0,0,2.191,2.191H7.449A2.191,2.191,0,0,0,9.64,22.363V21.049H.877Zm6.134.877v-.877a.438.438,0,1,1,.877,0v.877a.438.438,0,0,1-.877,0Zm-4.382,0v-.877a.438.438,0,1,1,.877,0v.877a.438.438,0,0,1-.877,0ZM6.564,5.275H3.935A.44.44,0,0,1,3.5,4.924c-.723-3.611-.732-3.484-.675-3.808A1.315,1.315,0,0,1,4.136.016C6.341.016,6.88-.137,7.4.5S7.7,1.423,7,4.924a.44.44,0,0,1-.431.351ZM4.022,3,4.3,4.4H6.214c.631-3.146.6-3.006.6-3.067A.438.438,0,0,0,6.38.893C5.645.893,5.1.873,4.7.873,3.362.873,3.642,1.093,4.022,3Z" transform="translate(-2174.637 920.19)" fill="#7f8fa6"/>
  </g>
</svg>
