<svg xmlns="http://www.w3.org/2000/svg" width="28.252" height="28.253" viewBox="0 0 28.252 28.253">
  <g id="animal4" transform="translate(2025.428 -918.457)">
    <path id="Union_64" data-name="Union 64" d="M9.689,24.751l-2.4,1.6a.44.44,0,0,1-.594-.629C8.179,23.745,7.95,21.982,7.929,18.5H7.047A4.846,4.846,0,0,1,2.5,15.309C.335,9.381,0,8.875,0,7.179A7.187,7.187,0,0,1,7.179,0h5.146a7.188,7.188,0,0,1,7.053,7.318c0,1.489-.286,2.017-2.127,7.8A4.844,4.844,0,0,1,12.636,18.5H11.448c-.023,3.409-.278,5.19,1.236,7.222a.44.44,0,0,1-.352.7h-.044C12.155,26.425,12.063,26.352,9.689,24.751Zm.242-.894,1.136.753c-.634-1.59-.5-2.629-.5-6.113H8.809c0,3.425.149,4.479-.5,6.113.875-.571,1.178-.831,1.407-.831A.369.369,0,0,1,9.931,23.857Zm2.7-6.24a3.965,3.965,0,0,0,3.774-2.761C18.3,8.932,18.5,8.641,18.5,7.319c0-.041,0-.083,0-.124A6.307,6.307,0,0,0,12.2.881H7.179a6.307,6.307,0,0,0-6.3,6.3c0,1.488.34,2.043,2.444,7.831a3.967,3.967,0,0,0,3.722,2.608h5.589Zm1.458-9.469a.661.661,0,1,1,.661.661A.66.66,0,0,1,14.094,8.148Zm-10.13,0a.661.661,0,1,1,.661.661A.66.66,0,0,1,3.964,8.148Z" transform="translate(-2020.958 919.337)" fill="#464451"/>
    <path id="Path_33628" data-name="Path 33628" d="M22.926,38.3c-.233,0-.3-.115-.753-.568A.442.442,0,0,1,22.8,37.1l.44.44a.441.441,0,0,1-.312.753Z" transform="translate(-2037.718 897.778)" fill="#7f8fa6"/>
    <path id="Path_33629" data-name="Path 33629" d="M39.4,38.3a.44.44,0,0,1-.313-.753l.44-.44a.442.442,0,1,1,.625.625C39.69,38.195,39.633,38.3,39.4,38.3Z" transform="translate(-2047.15 897.777)" fill="#7f8fa6"/>
    <path id="Path_33633" data-name="Path 33633" d="M15.316,39.039A9.658,9.658,0,0,1,2.9,24.316l1.81-1.81c.132.493.079.3,2.264,6.3a4.846,4.846,0,0,0,4.55,3.189H12.4c0,3.378.291,5.192-1.233,7.223a.44.44,0,0,0,.594.63l2.4-1.6Z" transform="translate(-2025.431 905.842)" fill="#e8e8e8" opacity="0.5"/>
    <path id="Path_33634" data-name="Path 33634" d="M46.6,9.806a9.641,9.641,0,0,1-2.827,6.831c-11.958,11.957-8.183,8.289-8.958,8.954-.731-1.625-.546-2.823-.546-6.06h1.185a4.844,4.844,0,0,0,4.615-3.378l1.788-5.62a7.241,7.241,0,0,0-6.84-9.5H32.916A9.663,9.663,0,0,1,46.6,9.806Z" transform="translate(-2043.78 918.304)" fill="#e8e8e8" opacity="0.5"/>
  </g>
</svg>
