<svg xmlns="http://www.w3.org/2000/svg" width="28.23" height="28.248" viewBox="0 0 28.23 28.248">
  <g id="animal3" transform="translate(2235.343 -918.457)">
    <path id="Path_33578" data-name="Path 33578" d="M31.162,51.81c-.293-.342-.52,0-1.355,0-3.074,0-3.19.044-3.763-.133a.444.444,0,0,0-.529.618,6.607,6.607,0,0,0,1.737,2.27c1.284,1.071.955,1.071,2.221,0a6.664,6.664,0,0,0,1.733-2.27A.444.444,0,0,0,31.162,51.81Zm-2.79,2.532A6.855,6.855,0,0,1,26.759,52.7H29.98A6.926,6.926,0,0,1,28.372,54.342Z" transform="translate(-2249.703 889.764)" fill="#7f8fa6"/>
    <path id="Union_58" data-name="Union 58" d="M12.927,15.55H9.879a4,4,0,0,1-3.617-2.733c-.881-2.641-1.239-3.568-1.369-4.285a4.142,4.142,0,0,1-4.762-.7.446.446,0,0,1,0-.631L6.29,1.049A.444.444,0,0,1,6.8.967l0,0A4.776,4.776,0,0,1,9.537,0c.05,0,3.822,0,4.23.022A4.873,4.873,0,0,1,16.2.962a.444.444,0,0,1,.5.087L22.852,7.2a.444.444,0,0,1,0,.631,4.116,4.116,0,0,1-4.763.7,33.938,33.938,0,0,1-1.359,4.263,4,4,0,0,1-3.8,2.759ZM5.716,7.722c0,.862.116,1,1.4,4.785a3.109,3.109,0,0,0,2.958,2.155c3.061,0,3.182.045,3.759-.133a3.113,3.113,0,0,0,2.062-2h-.014c1.236-3.7,1.391-3.923,1.391-4.811a20.63,20.63,0,0,0-.106-3.7,3.8,3.8,0,0,0-1.307-2.187A4.073,4.073,0,0,0,13.269.889c-4.763,0-4.475-.165-6.141.946q-.119.1-.225.211a1.9,1.9,0,0,1-.154.161q-.057.062-.109.125h0c-1.2,1.462-.924,2.937-.924,5.39Zm12.441-.236a3.11,3.11,0,0,0,3.727.009L18.005,3.622a4.9,4.9,0,0,1,.151.888c0,.176.017,1.537,0,2.645Q18.157,7.314,18.157,7.486ZM1.1,7.486a3.11,3.11,0,0,0,3.727,0c0-1.873-.032-2.648.035-3.191a2.768,2.768,0,0,1,.077-.439A.552.552,0,0,1,4.953,3.8q.023-.1.049-.2C4.886,3.662,4.162,4.428,1.1,7.486Zm9.192,5.26a1.111,1.111,0,0,1,.484-2.083h1.43a1.1,1.1,0,0,1,.982,1.515c-.168.444-.414.525-1.488,1.1a.4.4,0,0,1-.2.054C11.266,13.33,10.979,13.116,10.293,12.747Zm.328-1.081a.212.212,0,0,0,0,.193c.04.1.058.089.889.525.813-.444.835-.444.889-.52a.213.213,0,0,0-.152-.311H10.776A.216.216,0,0,0,10.621,11.665Zm3.092-4.334A.667.667,0,1,1,14.38,8,.667.667,0,0,1,13.713,7.331Zm-5.775,0A.666.666,0,1,1,8.6,8,.666.666,0,0,1,7.938,7.331Z" transform="translate(-2232.823 926.912)" fill="#464451"/>
    <path id="Path_33581" data-name="Path 33581" d="M42.065,4a8,8,0,0,0-7.939,7.055.444.444,0,0,0,.444.5,4.01,4.01,0,0,1,3.19,1.142.444.444,0,0,0,.755-.315A7.116,7.116,0,0,1,42.479,5.62.853.853,0,0,0,42.065,4ZM37.68,11.054c-.089.653.187.4-.937-.053a5,5,0,0,0-1.662-.338,7.109,7.109,0,0,1,6.873-5.776A7.944,7.944,0,0,0,37.68,11.054Z" transform="translate(-2254.51 916.249)" fill="#464451"/>
    <path id="Path_33582" data-name="Path 33582" d="M10.866,4a.857.857,0,0,0-.373,1.626A7.078,7.078,0,0,1,14.451,12c0,.347-.053.649.271.791a.444.444,0,0,0,.48-.089,4,4,0,0,1,2.4-1.124,6.811,6.811,0,0,1,.8-.022.444.444,0,0,0,.444-.5A8,8,0,0,0,10.866,4Zm4.474,7.469a8,8,0,0,0-4.332-6.58,7.109,7.109,0,0,1,6.873,5.776,4.825,4.825,0,0,0-2.541.8Z" transform="translate(-2241.114 916.248)" fill="#464451"/>
    <path id="Path_33583" data-name="Path 33583" d="M31,49.666V47.444a.444.444,0,1,1,.889,0v2.221a.444.444,0,1,1-.889,0Z" transform="translate(-2252.775 892.352)" fill="#7f8fa6"/>
    <path id="Path_33586" data-name="Path 33586" d="M28.691,9.721a9.725,9.725,0,0,1-2.852,6.891l-8.952,8.952A9.743,9.743,0,0,1,3.113,11.792L8.369,6.527a7.011,7.011,0,0,1,.773,3.079l-6.029,6.02a.444.444,0,0,0,0,.631,4,4,0,0,0,4.758.666,31.151,31.151,0,0,0,1.373,4.318,4,4,0,0,0,2.461,2.506,6.527,6.527,0,0,0,1.648,2.093c1.284,1.071.955,1.071,2.221,0a6.549,6.549,0,0,0,1.644-2.1,4,4,0,0,0,2.475-2.528,31.864,31.864,0,0,0,1.364-4.292,4,4,0,0,0,4.758-.666.444.444,0,0,0,0-.631L19.8,9.606a7.082,7.082,0,0,1,3.959-6.22.853.853,0,0,0-.4-1.626,8,8,0,0,0-7.882,6.664H13.469a7.931,7.931,0,0,0-2.457-4.541l1.049-1.049a9.752,9.752,0,0,1,16.63,6.886Z" transform="translate(-2235.804 918.488)" fill="#e8e8e8" opacity="0.5"/>
  </g>
</svg>
