<svg xmlns="http://www.w3.org/2000/svg" width="18.375" height="21" viewBox="0 0 18.375 21">
  <g id="bell" transform="translate(1187.224 -826.434)" style="isolation: isolate">
    <path id="Path_33655" data-name="Path 33655" d="M-1169.423,841.445a2.013,2.013,0,0,1,.574,1.415,1.907,1.907,0,0,1-.553,1.374,1.88,1.88,0,0,1-1.415.575h-4.594a2.536,2.536,0,0,1-.759,1.866,2.536,2.536,0,0,1-1.866.759,2.536,2.536,0,0,1-1.866-.759,2.536,2.536,0,0,1-.759-1.866h-4.594a1.88,1.88,0,0,1-1.415-.575,1.909,1.909,0,0,1-.554-1.374,1.943,1.943,0,0,1,.616-1.415,5.715,5.715,0,0,0,.9-1.107,6.592,6.592,0,0,0,.779-1.928,15.312,15.312,0,0,0,.328-3.445,6.451,6.451,0,0,1,.718-2.994,6.6,6.6,0,0,1,1.969-2.318,6.325,6.325,0,0,1,2.809-1.169,1.2,1.2,0,0,1-.246-.738,1.262,1.262,0,0,1,.39-.923,1.26,1.26,0,0,1,.923-.389,1.261,1.261,0,0,1,.923.389,1.265,1.265,0,0,1,.389.923,1.2,1.2,0,0,1-.246.738,6.329,6.329,0,0,1,2.81,1.169,6.6,6.6,0,0,1,1.969,2.318,6.45,6.45,0,0,1,.717,2.994,15.37,15.37,0,0,0,.328,3.445,6.619,6.619,0,0,0,.78,1.928A5.212,5.212,0,0,0-1169.423,841.445Zm-8.613,4.348a.949.949,0,0,1-.7-.287.949.949,0,0,1-.288-.7h-.656a1.588,1.588,0,0,0,.472,1.169,1.588,1.588,0,0,0,1.169.471.312.312,0,0,0,.225-.1.313.313,0,0,0,.1-.226.31.31,0,0,0-.1-.225A.31.31,0,0,0-1178.036,845.793Z" fill="#f5c732"/>
  </g>
</svg>
