<svg xmlns="http://www.w3.org/2000/svg" width="28.289" height="28.298" viewBox="0 0 28.289 28.298">
  <g id="bird" transform="translate(-0.461 0.011)">
    <g id="Group_55120" data-name="Group 55120" transform="translate(2.927 2.657)">
      <path id="Path_33635" data-name="Path 33635" d="M29.1,24.894c-.637-2.075-.89-2.849-1.135-3.909a30.553,30.553,0,0,1-.641-6.2,9.795,9.795,0,0,0-18.77-2.809C7.077,15.5,8.5,16.942,6.77,22.619A12.838,12.838,0,0,0,6,25.25a1.22,1.22,0,0,0,1.22,1.22c1.109,0,2.186.129,3.232-.935v.49a1.781,1.781,0,0,0,1.741,1.781A3.611,3.611,0,0,0,14.9,26.59a2.671,2.671,0,0,0,5.343,0c1.7,1.843,4.452,1.5,4.452-.574v-.481a3.87,3.87,0,0,0,3.232.935A1.22,1.22,0,0,0,29.1,24.894Zm-1.166.686H26.925A2.226,2.226,0,0,1,24.7,23.353a.445.445,0,0,0-.89,0v2.671c0,1.7-3.562.89-3.562-1.781a.445.445,0,0,0-.89,0c0,2.133.174,2.849-.583,3.562a1.781,1.781,0,0,1-2.979-1.434V24.244a.445.445,0,0,0-.89,0c0,2.671-3.562,3.495-3.562,1.781V23.353a.445.445,0,1,0-.89,0,2.226,2.226,0,0,1-2.226,2.226H7.22a.329.329,0,0,1-.329-.329A22.411,22.411,0,0,1,7.6,22.881a27.666,27.666,0,0,0,1.113-8.014,8.9,8.9,0,0,1,16.691-3.33c1.812,3.375.445,4.8,1.821,10.178.178.744.3,1.091,1.02,3.433a.329.329,0,0,1-.316.432Z" transform="translate(-6 -5.982)" fill="#464451"/>
      <path id="Path_33636" data-name="Path 33636" d="M19.668,23a.668.668,0,1,0,.668.668A.668.668,0,0,0,19.668,23Z" transform="translate(-13.212 -15.423)" fill="#464451"/>
      <path id="Path_33637" data-name="Path 33637" d="M42.668,23a.668.668,0,1,0,.668.668A.668.668,0,0,0,42.668,23Z" transform="translate(-25.972 -15.423)" fill="#464451"/>
    </g>
    <path id="Path_33638" data-name="Path 33638" d="M26.989,34.58c-.263,0-.045.138-3.762-3.562a.89.89,0,0,1,0-1.256l.637-.637a4.452,4.452,0,0,1,6.3,0l.592.557a.89.89,0,0,1,0,1.256C26.989,34.709,27.225,34.58,26.989,34.58Zm0-5.908a4.143,4.143,0,0,0-3.157,1.678l3.117,3.117,3.157-3.139A4.015,4.015,0,0,0,26.989,28.672Z" transform="translate(-12.487 -15.441)" fill="#7f8fa6"/>
    <path id="Path_33639" data-name="Path 33639" d="M18.385,36.5,16.92,37.968a9.764,9.764,0,0,1-13.8-13.8L5.055,22.23c-.89,3.165.579,3.059-2.07,11.682a1.22,1.22,0,0,0,1.162,1.572c1.109,0,2.186.129,3.232-.935v.49A1.781,1.781,0,0,0,9.12,36.82,3.611,3.611,0,0,0,11.831,35.6,2.72,2.72,0,0,0,14.5,38.155a2.671,2.671,0,0,0,2.671-2.542A3.455,3.455,0,0,0,18.385,36.5Z" transform="translate(0 -12.339)" fill="#e8e8e8" opacity="0.5"/>
    <path id="Path_33640" data-name="Path 33640" d="M43.04,9.753c0,4.127-2.226,6.291-3.86,7.907a30.554,30.554,0,0,1-.641-6.2A9.795,9.795,0,0,0,26.22,3,9.776,9.776,0,0,1,43.04,9.753Z" transform="translate(-14.291 0)" fill="#e8e8e8" opacity="0.5"/>
  </g>
</svg>
