<svg xmlns="http://www.w3.org/2000/svg" width="28.05" height="28.061" viewBox="0 0 28.05 28.061">
  <g id="cat" transform="translate(2288 -918.457)">
    <path id="Union_56" data-name="Union 56" d="M11.419,17.611a1.929,1.929,0,0,1-1.528.734c-1.869,0-2.459-2.4-1.528-2.4a.436.436,0,0,1,.436.437,1.092,1.092,0,0,0,2.184,0A.438.438,0,0,1,11,16.271a.438.438,0,0,1-.014-.109V14.414a.437.437,0,0,1,.873,0v1.748a.438.438,0,0,1-.014.109.438.438,0,0,1,.014.109,1.092,1.092,0,0,0,2.184,0,.437.437,0,0,1,.437-.437c.943,0,.328,2.4-1.529,2.4A1.923,1.923,0,0,1,11.419,17.611Zm10.485-.14c-.1,0,.293.11-5.806-1.747a.455.455,0,0,1,.254-.874L22.031,16.6a.441.441,0,1,1-.127.873ZM0,17.095a.439.439,0,0,1,.377-.5L6.5,14.851a.453.453,0,0,1,.237.874C.095,17.608.579,17.472.5,17.472a.445.445,0,0,1-.061,0A.44.44,0,0,1,0,17.095Zm16.221-2.68a.437.437,0,1,1,0-.873h6.115a.437.437,0,1,1,0,.873ZM.5,14.414a.437.437,0,0,1,0-.873H6.615a.437.437,0,0,1,0,.873Zm6-1.31L.383,11.357a.453.453,0,1,1,.236-.874L6.734,12.23A.453.453,0,0,1,6.5,13.1Zm9.229-.373a.44.44,0,0,1,.373-.5l5.21-1.6.469-.145a.455.455,0,0,1,.253.874c-1.856.567-5.678,1.747-5.805,1.747a.44.44,0,0,1-.5-.373ZM10.984,6.552V.437a.437.437,0,0,1,.873,0V6.552a.437.437,0,1,1-.873,0ZM13.6,4.805V.874a.437.437,0,0,1,.873,0V4.805a.437.437,0,1,1-.873,0Zm-5.242,0V.874a.436.436,0,1,1,.873,0V4.805a.436.436,0,1,1-.873,0Z" transform="translate(-2285.348 922.838)" fill="#7f8fa6"/>
    <path id="Path_33561" data-name="Path 33561" d="M16.251,38.348A9.577,9.577,0,0,1,2.893,24.62l1.564-1.56v5.163l-1.192-.358a.453.453,0,1,0-.236.874l1.429.406v1.778H3.147a.437.437,0,0,0,0,.873H4.51A7.267,7.267,0,0,0,4.9,33.46l-1.874.52a.453.453,0,0,0,.236.874l1.992-.568a7.426,7.426,0,0,0,6.626,4.062h4.368Z" transform="translate(-2287.995 905.457)" fill="#e8e8e8" opacity="0.5"/>
    <path id="Path_33562" data-name="Path 33562" d="M40.967,9.768c0,4.324-2.446,6.417-4.368,8.334v-1.9l1-.306a.446.446,0,1,0-.254-.856l-.747.249V3.251a.437.437,0,0,0-.437-.437,8.535,8.535,0,0,0-5.914,2.319,9.635,9.635,0,0,0-6.522,0,6.785,6.785,0,0,0-.668-.572L24.622,3a9.585,9.585,0,0,1,16.346,6.77Z" transform="translate(-2300.917 918.277)" fill="#e8e8e8" opacity="0.5"/>
    <path id="Union_57" data-name="Union 57" d="M7.453,22.714A7.429,7.429,0,0,1,.472,17.825l-.008,0A6.675,6.675,0,0,1,.091,16.26a7.5,7.5,0,0,1-.063-.942c-.012-.375-.013-.8-.012-1.306C0,13.039-.016,12.125.027,11.246V.437A.437.437,0,0,1,.464,0,8.634,8.634,0,0,1,6.38,2.328a9.638,9.638,0,0,1,6.56-.045A8.541,8.541,0,0,1,18.81,0a.437.437,0,0,1,.436.437v10.92h0s0,0,0,0c0,3.529.262,5.32-.842,7.355a7.425,7.425,0,0,1-6.583,4Zm0-.873h4.368a6.553,6.553,0,0,0,6.553-6.553V11.357a8.675,8.675,0,0,0-2.56-6.177,9.248,9.248,0,0,0-.946-.827,8.728,8.728,0,0,0-2.016-1.125.43.43,0,0,1-.105-.059l-.023-.009.023.02c.02.013.038.023.052.031-.023-.008-.058-.019-.105-.031,0-.014,0-.024,0-.031a8.71,8.71,0,0,0-6.115.026h0l-.013,0c-.015.008-.046.018-.1.039a9,9,0,0,0-1.731.9A8.685,8.685,0,0,0,.94,10.49q-.039.425-.04.867h0c0,2.22-.007,3.259,0,3.842a6.342,6.342,0,0,0,.438,2.386l-.017,0A6.554,6.554,0,0,0,7.453,21.841ZM.9,7.326A9.541,9.541,0,0,1,5.483,2.678,7.777,7.777,0,0,0,.9.874ZM15.277,3.574A9.566,9.566,0,0,1,18.364,7.32c.023-.137.01-1.235.01-6.446a7.766,7.766,0,0,0-4.549,1.789A8.553,8.553,0,0,1,15.277,3.574ZM6.44,3.228Zm2.018,12.8a1.092,1.092,0,0,1,.476-2.048H10.34a1.066,1.066,0,0,1,1.044,1.084c0,.839-.716,1.044-1.542,1.485a.4.4,0,0,1-.2.054C9.415,16.6,9.132,16.39,8.457,16.026Zm.411-.768.769.41.769-.41c.175-.1.113-.407-.066-.407H8.933C8.755,14.852,8.694,15.162,8.869,15.259ZM13.132,10.7a.655.655,0,1,1,.655.655A.655.655,0,0,1,13.132,10.7Zm-8.3,0a.655.655,0,1,1,.655.655A.655.655,0,0,1,4.832,10.7ZM12.8,3.211a.165.165,0,0,1,.039.017h0A.178.178,0,0,1,12.8,3.211Z" transform="translate(-2283.565 921.09)" fill="#464451"/>
  </g>
</svg>
