<svg xmlns="http://www.w3.org/2000/svg" width="28.019" height="28.034" viewBox="0 0 28.019 28.034">
  <g id="dog" transform="translate(-0.002 0.032)">
    <path id="Path_33548" data-name="Path 33548" d="M15.294,30.142H13.932a3.065,3.065,0,0,1-3.065-3.065c0-8.318,0-7.692.048-8.345a2.811,2.811,0,0,1-.854-.241c-.105.841-.07.876-.07,8.585a3.94,3.94,0,0,0,3.94,3.94h3.5A3.065,3.065,0,0,1,15.294,30.142ZM27.942,17.883a4.816,4.816,0,0,1-4.816-4.816V11.316c0-.517.232-.613-.736-.911a9.741,9.741,0,0,0-6,.153c-.4.14-.267.547-.267.757v1.751a4.816,4.816,0,0,1-4.816,4.816c-1.489,0-1.313-1.817-1.313,9.194a3.94,3.94,0,0,0,3.94,3.94H25.315a3.94,3.94,0,0,0,3.94-3.94C29.255,16.132,29.461,17.883,27.942,17.883Zm.438,9.194a3.065,3.065,0,0,1-3.065,3.065H13.932a3.065,3.065,0,0,1-3.065-3.065c0-8.318,0-7.692.048-8.345a3.17,3.17,0,0,0,.39.026A5.692,5.692,0,0,0,17,13.068V11.277a8.883,8.883,0,0,1,5.254,0v1.791a5.692,5.692,0,0,0,5.692,5.692,3.424,3.424,0,0,0,.39-.026C28.38,19.389,28.38,18.851,28.38,27.077Z" transform="translate(-5.612 -5.643)" fill="#464451"/>
    <path id="Path_33549" data-name="Path 33549" d="M28.962,37.8a5.28,5.28,0,0,0-2.29-1.313.438.438,0,0,0-.556.438c0,.206-.022.166-.876.622-.827-.438-.876-.438-.876-.582a.438.438,0,0,0-.552-.473,5.254,5.254,0,0,0-3.822,5.026c0,1.383-.144,2.46.924,3.5a3.065,3.065,0,0,0,2.141.876h4.378A3.065,3.065,0,0,0,30.5,42.833C30.5,41.187,30.648,39.5,28.962,37.8Zm-.193,6.782c-.806.626-1.2.438-5.692.438a2.189,2.189,0,0,1-2.189-2.189V41.519a4.378,4.378,0,0,1,2.763-4.067,1.077,1.077,0,0,0,.438.438c1.239.665,1.077.687,1.62.4.749-.4,1.007-.49,1.178-.827a4.378,4.378,0,0,1,2.736,4.058c0,1.274.166,2.268-.854,3.065Z" transform="translate(-11.234 -20.522)" fill="#7f8fa6"/>
    <path id="Path_33550" data-name="Path 33550" d="M22.657,28a.657.657,0,1,0,.657.657A.657.657,0,0,0,22.657,28Z" transform="translate(-12.367 -15.759)" fill="#2b5a31"/>
    <path id="Path_33551" data-name="Path 33551" d="M39.657,28a.657.657,0,1,0,.657.657A.657.657,0,0,0,39.657,28Z" transform="translate(-21.924 -15.759)" fill="#2b5a31"/>
    <g id="Group_55119" data-name="Group 55119" transform="translate(0.002 -0.032)">
      <path id="Path_33552" data-name="Path 33552" d="M31,44.254V39.438a.438.438,0,1,1,.876,0v4.816a.438.438,0,1,1-.876,0Z" transform="translate(-17.429 -21.912)" fill="#7f8fa6"/>
      <path id="Path_33553" data-name="Path 33553" d="M16.2,40.122A9.6,9.6,0,0,1,2.978,26.2a3.065,3.065,0,0,0,1.475,1.4c-.109.841-.074.876-.074,8.585a3.94,3.94,0,0,0,3.94,3.94Z" transform="translate(-0.002 -14.716)" fill="#e8e8e8" opacity="0.5"/>
      <path id="Path_33554" data-name="Path 33554" d="M41.743,9.579c0,4.343-2.487,6.466-4.378,8.353,0-4.264,0-4.343-.07-5.087a3.065,3.065,0,0,0,1.821-2.793V8.3c0-5.556-7.355-7.631-8.616-3.537a9.772,9.772,0,0,0-5.538,0,2.841,2.841,0,0,0-.552-1.024l.946-.946A9.61,9.61,0,0,1,41.743,9.579Z" transform="translate(-13.724 0.032)" fill="#e8e8e8" opacity="0.5"/>
    </g>
    <path id="Path_33555" data-name="Path 33555" d="M28.57,37.053A1.095,1.095,0,0,1,29.047,35h1.41A1.064,1.064,0,0,1,31.5,36.086c0,.841-.714,1.046-1.545,1.489-.3.162-.512-.053-1.388-.521Zm.306-.941c0,.162.053.14.876.582.849-.438.876-.438.876-.622a.188.188,0,0,0-.166-.2c-1.7,0-1.55-.057-1.585.236Z" transform="translate(-15.741 -19.694)" fill="#2b5a31"/>
    <path id="Path_33556" data-name="Path 33556" d="M14.726,8.67C14.121,3.967,6,5.837,6,11.7V13.45a3.065,3.065,0,0,0,3.065,3.065,5.692,5.692,0,0,0,5.692-5.692A19.242,19.242,0,0,0,14.726,8.67Zm-.845,2.154a4.816,4.816,0,0,1-4.816,4.816A2.189,2.189,0,0,1,6.876,13.45V11.7c0-4.146,4.982-6.081,6.567-3.94C14.021,8.525,13.881,9.269,13.881,10.824Z" transform="translate(-3.372 -3.399)" fill="#7f8fa6"/>
    <path id="Path_33557" data-name="Path 33557" d="M41.065,6A3.065,3.065,0,0,0,38,9.026v1.79c0,3.892,3.848,6.353,6.567,5.56a3.091,3.091,0,0,0,2.189-2.933V11.692A5.692,5.692,0,0,0,41.065,6Zm4.816,7.443a2.189,2.189,0,0,1-2.189,2.189,4.816,4.816,0,0,1-4.816-4.816c0-2.679,0-1.839,0-2.045.438-3.5,7-1.9,7,2.92Z" transform="translate(-21.362 -3.391)" fill="#7f8fa6"/>
  </g>
</svg>
