<svg xmlns="http://www.w3.org/2000/svg" width="48.861" height="44.472" viewBox="0 0 48.861 44.472">
  <g id="return" transform="translate(-6.991 -15.052)">
    <g id="packaging" transform="translate(6.991 19.443)">
      <path id="Path_33544" data-name="Path 33544" d="M48.861,0V40.081H0V0H17.273l7.157,6.327L31.588,0Zm0,0" fill="#02d3eb"/>
      <path id="Path_33547" data-name="Path 33547" d="M195.315,0V22.073l-4.294-4.294-2.863,2.863-2.863-2.863L181,22.073V0Zm0,0" transform="translate(-163.727)" fill="#31b7c7"/>
      <path id="Path" d="M1,2.008H9.038A1,1,0,0,0,9.038,0H1A1,1,0,1,0,1,2.008Z" transform="translate(17.155 30.702)" fill="#fff"/>
      <path id="Path-2" data-name="Path" d="M1,2.008H5.021A1,1,0,1,0,5.021,0H1A1,1,0,0,0,1,2.008Z" transform="translate(21.171 33.715)" fill="#fff"/>
      <path id="Path-3" data-name="Path" d="M1,0H4.017a1,1,0,0,1,1,1V4.017a1,1,0,0,1-1,1H1a1,1,0,0,1-1-1V1A1,1,0,0,1,1,0Z" transform="translate(9.123 30.702)" fill="#fff"/>
      <path id="Path-4" data-name="Path" d="M1,0H4.017a1,1,0,0,1,1,1V4.017a1,1,0,0,1-1,1H1a1,1,0,0,1-1-1V1A1,1,0,0,1,1,0Z" transform="translate(3.092 30.702)" fill="#fff"/>
    </g>
    <path id="Path-5" data-name="Path" d="M6.515,0,0,4.027H19.544L21.173,0Z" transform="translate(6.991 15.052)" fill="#0c35e2"/>
    <path id="Path-6" data-name="Path" d="M1.629,0,0,4.027H9.8L8.144,0Z" transform="translate(26.535 15.052)" fill="#9aadf9"/>
    <path id="Path-7" data-name="Path" d="M0,0,1.661,4.027H21.173L14.658,0Z" transform="translate(34.679 15.052)" fill="#0c35e2"/>
    <path id="Path-8" data-name="Path" d="M2.012,0H6.028V5.027c0,.016-.008.028-.009.044a1.172,1.172,0,0,1-.026.132,1.007,1.007,0,0,1-.07.255c0,.008,0,.016-.006.022a.926.926,0,0,1-.062.078,1,1,0,0,1-.164.208.981.981,0,0,1-.128.086.955.955,0,0,1-.2.108A1.021,1.021,0,0,1,5.177,6a.988.988,0,0,1-.152.03c-.013,0-.022-.007-.034-.007a.984.984,0,0,1-.206-.041,1.042,1.042,0,0,1-.179-.049c-.013-.006-.025-.005-.038-.011L3.03,5.144l-1.574.78c-.012.006-.023.008-.035.013s-.039.014-.059.021a1,1,0,0,1-.351.07h0A1,1,0,0,1,.665,5.96a.944.944,0,0,1-.092-.039,1.048,1.048,0,0,1-.231-.156C.324,5.749.306,5.739.289,5.722a1.012,1.012,0,0,1-.18-.25c0-.009,0-.019-.007-.027a1.054,1.054,0,0,1-.054-.2A.993.993,0,0,1,.01,5.055C.01,5.045,0,5.036,0,5.027V5.02H0V0H2.012Z" transform="translate(28.122 21.078)" fill="#02d3eb"/>
  </g>
</svg>
