<svg xmlns="http://www.w3.org/2000/svg" width="28.189" height="28.186" viewBox="0 0 28.189 28.186">
  <g id="rubit" transform="translate(2130.741 -918.457)">
    <path id="Path_33602" data-name="Path 33602" d="M18.441,18.919A.441.441,0,0,1,18,18.478V10.763a1.763,1.763,0,1,1,3.525,0v6.262a.441.441,0,0,1-.3.414C19.273,18.122,18.846,18.919,18.441,18.919Zm1.322-9.038a.881.881,0,0,0-.881.881v6.857a9.5,9.5,0,0,1,1.763-.881V10.763A.881.881,0,0,0,19.763,9.881Z" transform="translate(-2140.822 913.417)" fill="#7f8fa6"/>
    <path id="Path_33603" data-name="Path 33603" d="M25.986,53.924c-1.886,0-2.481-2.424-1.542-2.424a.441.441,0,0,1,.441.441,1.1,1.1,0,1,0,2.2,0,.441.441,0,0,1,.441-.441C28.485,51.5,27.846,53.924,25.986,53.924Z" transform="translate(-2144.181 889.645)" fill="#7f8fa6"/>
    <path id="Path_33604" data-name="Path 33604" d="M32.986,53.924c-1.886,0-2.481-2.424-1.542-2.424a.441.441,0,0,1,.441.441,1.1,1.1,0,1,0,2.2,0,.441.441,0,0,1,.441-.441C35.485,51.5,34.846,53.924,32.986,53.924Z" transform="translate(-2148.097 889.645)" fill="#7f8fa6"/>
    <path id="Path_33605" data-name="Path 33605" d="M41.085,18.919c-.405,0-.833-.8-2.789-1.481a.441.441,0,0,1-.3-.414V10.763a1.763,1.763,0,1,1,3.525,0v7.716A.441.441,0,0,1,41.085,18.919Zm-2.2-2.2a9.505,9.505,0,0,1,1.763.881V10.763a.881.881,0,0,0-1.763,0Z" transform="translate(-2152.009 913.417)" fill="#7f8fa6"/>
    <path id="Union_61" data-name="Union 61" d="M5.728,24.678A5.729,5.729,0,0,1,0,18.949a9.679,9.679,0,0,1,1.322-4.9V3.967a3.959,3.959,0,1,1,7.919,0V9.255c.3-.014.6-.015.894,0V3.967A3.967,3.967,0,0,1,12.582.3q.075-.031.152-.059A3.957,3.957,0,0,1,14.076,0h.072a3.966,3.966,0,0,1,2.667,1.074l.088.085a3.941,3.941,0,0,1,1.164,2.807V14.044A9.678,9.678,0,0,1,19.112,16.6H19.1c1.242,5-1.917,8.082-5.442,8.082ZM9.081,10.1c-.274.146-.945.082-2.321.54a8.991,8.991,0,0,0-.926.39A8.832,8.832,0,0,0,.881,18.949,4.847,4.847,0,0,0,5.728,23.8h7.933a4.8,4.8,0,0,0,3.428-1.418c1.875-1.865,1.834-5.209.193-7.934l-.036-.042,0,0-.006-.007c-.1-.128-.214-.3-.351-.506h0l-.006-.008c-.108-.161-.231-.341-.381-.535a8.876,8.876,0,0,0-1.78-1.633l-.1-.066-.026-.016-.018-.011-.027-.017-.044-.027,0,0-.055-.034-.062-.04-.036-.023-.023-.014a8.561,8.561,0,0,0-.9-.488l-.027-.012-.032-.015-.151-.067c-.2-.087-.406-.168-.617-.241-.077-.019-.292-.084-.424-.136l-.04-.014-.11-.031h0c-.128-.035-.257-.067-.386-.1a12.937,12.937,0,0,1-1.319-.256q-.3-.023-.6-.023Q9.4,10.077,9.081,10.1Zm8.1,2.676V3.967a3.085,3.085,0,1,0-6.169,0V9.335A9.678,9.678,0,0,1,15.9,11.49q.1.08.191.162l0,0,.091.08c.088.078.174.159.259.241l.122.12.014.014.028.028.015.016.029.029.011.011Q16.934,12.475,17.186,12.779ZM2.2,3.967v8.813a9.658,9.658,0,0,1,1.317-1.316l0,0,0,0,0,0,0,0,0,0,0,0,0,0c.042-.035.085-.069.129-.1A9.711,9.711,0,0,1,8.36,9.336c.026-.11.013-.83.013-5.369a3.085,3.085,0,0,0-6.169,0ZM8.5,21.015a1.1,1.1,0,0,1,.481-2.067H10.4a1.075,1.075,0,0,1,1.054,1.093c0,.846-.723,1.054-1.556,1.5a.4.4,0,0,1-.195.053C9.473,21.594,9.188,21.379,8.5,21.015Zm.414-.775.775.414.776-.414c.176-.1.114-.41-.067-.41H8.985C8.8,19.83,8.743,20.143,8.919,20.24Zm3.86-3.274a.661.661,0,1,1,.662.662A.661.661,0,0,1,12.779,16.966Zm-7.491,0a.661.661,0,1,1,.661.662A.66.66,0,0,1,5.288,16.966Zm-1.767-5.5,0,0Zm8.5-1.012h0Z" transform="translate(-2126.347 920.213)" fill="#464451"/>
    <path id="Path_33613" data-name="Path 33613" d="M31.125,51.126a.442.442,0,1,1,0,.626A.442.442,0,0,1,31.125,51.126Z" transform="translate(-2148.091 889.927)" fill="#2b5a31"/>
    <path id="Path_33614" data-name="Path 33614" d="M15.241,37.626A9.664,9.664,0,0,1,2.845,22.9l2.9-2.9v7.006A9.694,9.694,0,0,0,4.423,31.9a5.729,5.729,0,0,0,5.729,5.729Z" transform="translate(-2130.77 907.265)" fill="#e8e8e8" opacity="0.5"/>
    <path id="Path_33615" data-name="Path 33615" d="M43.472,9.666c0,4.477-2.613,6.61-4.693,8.7a9.769,9.769,0,0,0-1.036-2.534V5.735a3.966,3.966,0,1,0-7.932,0v5.288a7.35,7.35,0,0,0-.881,0V5.735A3.966,3.966,0,0,0,27.3,2.527,9.682,9.682,0,0,1,43.472,9.666Z" transform="translate(-2146.024 918.445)" fill="#e8e8e8" opacity="0.5"/>
  </g>
</svg>
