<svg xmlns="http://www.w3.org/2000/svg" width="36.995" height="38.655" viewBox="0 0 36.995 38.655">
  <g id="smartphone" transform="translate(-0.001)">
    <path id="Path_32971" data-name="Path 32971" d="M19.739,58.952,30.222,54.8A18.5,18.5,0,1,0,18.5,58.994c.417,0,.831-.015,1.241-.042Zm0,0" transform="translate(0 -20.339)" fill="#e8e8e8"/>
    <path id="Path_32972" data-name="Path 32972" d="M175.995,131.806a9.848,9.848,0,0,0-.915-5.181c-2.042-4.153-1.573-4.455-1.637-8.577a1.525,1.525,0,0,0-3.049,0v15.331a3.381,3.381,0,0,1-.072.694v2.195a3.358,3.358,0,0,1-3.354,3.354h-8.346a11.843,11.843,0,0,0,5.072,4.025l.038.016a4.973,4.973,0,0,1,2.652,2.677,18.41,18.41,0,0,0,10.483-4.148l-1.136-4.175a5.329,5.329,0,0,1-.169-1.833Zm0,0" transform="translate(-146.644 -107.725)" fill="#f9cfa9"/>
    <path id="Path_32973" data-name="Path 32973" d="M41.451,106.195l-.464-.43a1.774,1.774,0,0,0-2.412,2.6l2.877,2.665Zm0,0" transform="translate(-35.138 -97.344)" fill="#f9cfa9"/>
    <path id="Path_32974" data-name="Path 32974" d="M97.85,0H84.81a2.3,2.3,0,0,0-2.294,2.295v27.48A2.3,2.3,0,0,0,84.81,32.07H97.85a2.3,2.3,0,0,0,2.295-2.295V2.295A2.3,2.3,0,0,0,97.85,0Zm0,0" transform="translate(-76.285)" fill="#0c35e2"/>
    <path id="Path_32975" data-name="Path 32975" d="M86.93,1.7A1.159,1.159,0,0,1,87.414,0H84.806a2.3,2.3,0,0,0-2.295,2.295v27.48a2.3,2.3,0,0,0,2.295,2.294h2.772V3.713A3.613,3.613,0,0,0,86.93,1.7Zm0,0" transform="translate(-76.281 0)" fill="#2b3894"/>
    <path id="Path_32976" data-name="Path 32976" d="M100.109,191.977v15.281a.966.966,0,0,0,.966.966h13.04a.966.966,0,0,0,.966-.966V191.977Zm0,0" transform="translate(-92.55 -177.483)" fill="#e6f7fe"/>
    <path id="Path_32977" data-name="Path 32977" d="M100.109,191.977v15.281a.966.966,0,0,0,.966.966h2.286V191.977Zm0,0" transform="translate(-92.55 -177.483)" fill="#d5f1fe"/>
    <path id="Path_32978" data-name="Path 32978" d="M132.6,234.49a1.514,1.514,0,1,1-1.514-1.514A1.514,1.514,0,0,1,132.6,234.49Zm0,0" transform="translate(-119.791 -215.387)" fill="#3d4ec6"/>
    <path id="Path_32979" data-name="Path 32979" d="M132.6,308.846a1.514,1.514,0,1,1-1.514-1.514A1.514,1.514,0,0,1,132.6,308.846Zm0,0" transform="translate(-119.791 -284.129)" fill="#3d4ec6"/>
    <path id="Path_32980" data-name="Path 32980" d="M130.917,233.113a1.514,1.514,0,1,0,1.424,2.353A1.515,1.515,0,0,1,130.917,233.113Zm0,0" transform="translate(-119.79 -215.513)" fill="#2b3894"/>
    <path id="Path_32981" data-name="Path 32981" d="M130.917,307.469a1.514,1.514,0,1,0,1.424,2.353A1.515,1.515,0,0,1,130.917,307.469Zm0,0" transform="translate(-119.79 -284.255)" fill="#2b3894"/>
    <g id="Group_55005" data-name="Group 55005" transform="translate(14.768 17.342)">
      <path id="Path_32982" data-name="Path 32982" d="M198.313,230.827h-2.149a.566.566,0,0,1,0-1.132h2.149a.566.566,0,0,1,0,1.132Zm0,0" transform="translate(-195.597 -229.695)" fill="#11dfef"/>
      <path id="Path_32983" data-name="Path 32983" d="M200.462,262.5h-4.3a.566.566,0,1,1,0-1.132h4.3a.566.566,0,1,1,0,1.132Zm0,0" transform="translate(-195.597 -258.976)" fill="#11dfef"/>
      <path id="Path_32984" data-name="Path 32984" d="M198.313,305.18h-2.149a.566.566,0,0,1,0-1.133h2.149a.566.566,0,0,1,0,1.133Zm0,0" transform="translate(-195.597 -298.434)" fill="#11dfef"/>
      <path id="Path_32985" data-name="Path 32985" d="M200.462,336.851h-4.3a.566.566,0,1,1,0-1.132h4.3a.566.566,0,1,1,0,1.132Zm0,0" transform="translate(-195.597 -327.714)" fill="#11dfef"/>
    </g>
    <path id="Path_32986" data-name="Path 32986" d="M114.014,17.6h-1.938a.331.331,0,0,0-.331.331.8.8,0,0,1-.8.8h-6.908a.8.8,0,0,1-.8-.8.331.331,0,0,0-.331-.331h-1.938a.966.966,0,0,0-.966.966v12.35h14.972V18.564a.966.966,0,0,0-.966-.966Zm0,0" transform="translate(-92.457 -16.269)" fill="#f948b4"/>
    <path id="Path_32987" data-name="Path 32987" d="M103.268,18.119a.785.785,0,0,1-.024-.191.331.331,0,0,0-.331-.331h-1.938a.966.966,0,0,0-.966.966v12.35h3.259Zm0,0" transform="translate(-92.457 -16.269)" fill="#e00e8b"/>
    <path id="Path_32988" data-name="Path 32988" d="M201.325,17.6h-1.938a.331.331,0,0,0-.331.331.8.8,0,0,1-.8.8h-3.81l7.842,9.83V18.563a.966.966,0,0,0-.966-.966Zm0,0" transform="translate(-179.768 -16.269)" fill="#fc7acd"/>
    <path id="Path_32989" data-name="Path 32989" d="M128.01,63.339H125.4a.566.566,0,0,1,0-1.132h2.611a.566.566,0,0,1,0,1.132Zm0,0" transform="translate(-115.407 -57.51)" fill="#fc7acd"/>
    <path id="Path_32990" data-name="Path 32990" d="M52.917,179.658a1.555,1.555,0,0,1-2.2.084l-2.6-2.413a1.555,1.555,0,0,1,2.114-2.281l2.6,2.413A1.555,1.555,0,0,1,52.917,179.658Zm0,0" transform="translate(-44.021 -161.448)" fill="#f9cfa9"/>
    <path id="Path_32991" data-name="Path 32991" d="M75.657,198.031l-1.239-1.148a1.825,1.825,0,0,1-2.113,2.281l1.239,1.148a1.555,1.555,0,0,0,2.114-2.281Zm0,0" transform="translate(-66.845 -182.018)" fill="#fbbc8d"/>
    <path id="Path_32992" data-name="Path 32992" d="M52.917,235.833a1.555,1.555,0,0,1-2.2.084l-2.6-2.413a1.555,1.555,0,1,1,2.114-2.281l2.6,2.413A1.555,1.555,0,0,1,52.917,235.833Zm0,0" transform="translate(-44.021 -213.383)" fill="#f9cfa9"/>
    <path id="Path_32993" data-name="Path 32993" d="M52.917,292.006a1.555,1.555,0,0,1-2.2.084l-2.6-2.413a1.555,1.555,0,1,1,2.114-2.281l2.6,2.413A1.555,1.555,0,0,1,52.917,292.006Zm0,0" transform="translate(-44.021 -265.314)" fill="#f9cfa9"/>
    <path id="Path_32994" data-name="Path 32994" d="M215.109,390.138a5.361,5.361,0,0,1-.164-.9,12.408,12.408,0,0,1-13.73,5.561,11.833,11.833,0,0,0,1.856.973l.038.016a4.971,4.971,0,0,1,2.652,2.677,18.41,18.41,0,0,0,10.483-4.148Zm0,0" transform="translate(-186.023 -359.848)" fill="#fbbc8d"/>
    <path id="Path_32995" data-name="Path 32995" d="M75.657,254.207l-1.239-1.148A1.825,1.825,0,0,1,72.3,255.34l1.239,1.148a1.555,1.555,0,0,0,2.114-2.281Zm0,0" transform="translate(-66.845 -233.953)" fill="#fbbc8d"/>
    <path id="Path_32996" data-name="Path 32996" d="M75.657,310.379l-1.239-1.148a1.825,1.825,0,0,1-2.113,2.281l1.239,1.148a1.555,1.555,0,1,0,2.114-2.281Zm0,0" transform="translate(-66.845 -285.884)" fill="#fbbc8d"/>
  </g>
</svg>
