<svg xmlns="http://www.w3.org/2000/svg" width="28.303" height="28.323" viewBox="0 0 28.303 28.323">
  <g id="walrus" transform="translate(-0.026 0.043)">
    <g id="Group_55121" data-name="Group 55121" transform="translate(8.529 12.861)">
      <path id="Path_33644" data-name="Path 33644" d="M22.626,26.912a3.382,3.382,0,1,1-.958-5.636.376.376,0,0,1,.207.485c0,.143.038.128.751.485.7-.353.751-.346.751-.466a.376.376,0,0,1,.207-.5,3.382,3.382,0,1,1-.958,5.636Zm0-.909c.376,0,.534.7,1.687.954a2.63,2.63,0,1,0-.184-5.087c-.071.624-.616.751-1.326,1.127-.237.12-.376-.019-1.176-.421a.9.9,0,0,1-.5-.706,2.631,2.631,0,1,0-.192,5.091C22.07,26.709,22.25,26,22.626,26Z" transform="translate(-16.984 -21.015)" fill="#7f8fa6"/>
    </g>
    <path id="Union_65" data-name="Union 65" d="M-865.647-425.585c.66-7.587.611-7.308.734-7.932A8.667,8.667,0,0,1-855.8-440.5a8.667,8.667,0,0,1,8.051,8.185l.443,6.884a9.114,9.114,0,0,1-2.513,6.809,8.959,8.959,0,0,1-6.574,2.863A9.153,9.153,0,0,1-865.647-425.585Zm2.044-9.229c-.6,1.443-.513,1.8-1.167,9.318a8.309,8.309,0,0,0,14.307,6.255v0a8.247,8.247,0,0,0,2.265-6.127l-.443-6.888a7.778,7.778,0,0,0-6.455-7.274,7.8,7.8,0,0,0-1.317-.112A7.78,7.78,0,0,0-863.6-434.813Zm6.032,6.944a.9.9,0,0,1-.473-1.011.9.9,0,0,1,.876-.691h1.21a.9.9,0,0,1,.9.894c0,.7-.646.879-1.334,1.221a.335.335,0,0,1-.163.045A3.576,3.576,0,0,1-857.571-427.869Zm.256-.808c0,.121.049.113.752.466.7-.354.751-.346.751-.466a.158.158,0,0,0-.147-.15c-.269,0-.483,0-.653,0h-.286C-857.294-428.83-857.283-428.811-857.316-428.677Zm2.964-5.888a.664.664,0,0,1,.663-.664.664.664,0,0,1,.664.664.664.664,0,0,1-.664.663A.663.663,0,0,1-854.352-434.565Zm-5.751,0a.664.664,0,0,1,.663-.664.664.664,0,0,1,.663.664.663.663,0,0,1-.663.663A.663.663,0,0,1-860.1-434.565Z" transform="translate(870.736 442.284)" fill="#464451"/>
    <path id="Path_33649" data-name="Path 33649" d="M15.406,37.549A9.7,9.7,0,0,1,2.855,22.834L5.819,19.87c-.124.624-.075.345-.734,7.932a9.189,9.189,0,0,0,10.321,9.746Z" transform="translate(0 -11.103)" fill="#e8e8e8" opacity="0.5"/>
    <path id="Path_33650" data-name="Path 33650" d="M44.512,9.674c0,4.566-2.685,6.707-4.986,9.007.19-1.274.106-1.469-.363-8.715A8.662,8.662,0,0,0,29.05,1.87a9.709,9.709,0,0,1,15.462,7.8Z" transform="translate(-16.184)" fill="#e8e8e8" opacity="0.5"/>
  </g>
</svg>
